<?xml version="1.0" encoding="utf-8"?>
<!-- Generator: Adobe Illustrator 22.0.0, SVG Export Plug-In . SVG Version: 6.00 Build 0)  -->
<svg version="1.2" baseProfile="tiny" id="Layer_1" xmlns="http://www.w3.org/2000/svg" xmlns:xlink="http://www.w3.org/1999/xlink"
	 x="0px" y="0px" viewBox="0 0 217.5 71" xml:space="preserve">
<g>
	<g>
		<path fill="#1E9DD3" d="M2.6,37.2c0-3.6,1-6.9,2.9-9.8c1.9-3,4.4-5.3,7.7-7c3.2-1.7,6.6-2.6,10.3-2.6c2.8,0,5.4,0.5,7.9,1.5
			c2.5,0.9,4.7,2.3,6.7,4.1c2,1.8,3.5,3.9,4.6,6.2c1.1,2.3,1.6,4.9,1.6,7.7c0,2.7-0.6,5.3-1.7,7.7c-1.1,2.4-2.6,4.4-4.6,6.2
			c-2,1.8-4.2,3.2-6.7,4.1c-2.5,0.9-5.2,1.4-7.9,1.4c-2.7,0-5.3-0.5-7.8-1.4l-0.8-0.4l-0.8-0.4v15l-11.3,0V37.2z M13.9,37.5
			c0,1.7,0.4,3.2,1.3,4.5c0.9,1.4,2,2.5,3.5,3.3c1.4,0.8,3,1.2,4.7,1.2c1.7,0,3.2-0.4,4.7-1.2s2.6-1.9,3.5-3.3
			c0.9-1.4,1.3-2.9,1.3-4.5c0-2.5-0.9-4.7-2.8-6.5c-1.9-1.8-4.1-2.7-6.7-2.7c-2.6,0-4.8,0.9-6.6,2.7C14.8,32.8,13.9,35,13.9,37.5z"
			/>
		<path fill="#1E9DD3" d="M57,12.2c-0.5,0.9-1.2,1.6-2.1,2.1c-0.9,0.5-1.9,0.8-3,0.8c-1.1,0-2.1-0.3-2.9-0.8
			c-0.9-0.5-1.6-1.3-2.1-2.2c-0.5-0.9-0.8-2-0.8-3c0-1.1,0.3-2.1,0.8-3C47.3,5.3,48,4.5,48.9,4c0.9-0.5,1.9-0.8,2.9-0.8
			c1.1,0,2.1,0.3,3,0.8c0.9,0.5,1.6,1.2,2.1,2.2c0.5,0.9,0.8,1.9,0.8,3C57.8,10.3,57.5,11.3,57,12.2z M57.7,19.5v36.4H46.4V19.5
			L57.7,19.5z"/>
		<path fill="#1E9DD3" d="M87.5,30.4c-1-0.9-2.1-1.5-3.3-1.9c-1.3-0.4-2.6-0.6-4-0.6c-2.6,0-4.8,0.8-6.6,2.5
			c-1.8,1.7-2.7,3.8-2.7,6.2c0,1.9,0.4,3.7,1.2,5.2c0.8,1.5,1.9,2.8,3.4,3.7c1.4,0.9,3.1,1.4,5,1.4c2.8,0,5.2-0.9,7.2-2.7l6.2,7.9
			c-0.9,0.9-2.2,1.8-3.8,2.5c-1.6,0.7-3.3,1.3-5,1.6c-1.7,0.4-3.3,0.5-4.8,0.5c-4.1,0-7.8-0.9-10.9-2.6c-3.1-1.8-5.6-4-7.2-6.9
			c-1.7-2.9-2.5-6-2.5-9.3c0-3,0.5-5.7,1.5-8.2c1-2.5,2.5-4.6,4.3-6.4c1.8-1.7,4-3.1,6.6-4.1c2.6-1,5.3-1.5,8.3-1.5
			c2.4,0,4.8,0.4,7.1,1.1c2.3,0.8,4.4,1.9,6.1,3.3L87.5,30.4z"/>
		<path fill="#75B743" d="M106.9,5.4v16.2c1.1-1.1,2.4-2,4-2.6c1.6-0.6,3.3-1,5-1c9.1,0,13.7,5.3,13.7,16v21.8l-11.4,0v-21
			c0-2.2-0.5-3.8-1.5-4.9c-1-1.1-2.4-1.6-4.2-1.6c-1.8,0-3.1,0.5-4.1,1.6c-1,1.1-1.5,2.7-1.5,4.9v21l-11.4,0.1V5.4L106.9,5.4z"/>
		<path fill="#FFCC04" d="M161.7,54.7c-0.8,0.3-1.3,0.6-1.7,0.7c-2.5,1-5.1,1.5-7.9,1.5c-3.6,0-7-0.8-10.3-2.5c-3.2-1.7-5.8-4-7.7-7
			c-1.9-3-2.9-6.3-2.9-10c0-2.8,0.6-5.3,1.7-7.7c1.1-2.4,2.6-4.4,4.6-6.2c1.9-1.8,4.1-3.1,6.7-4c2.5-1,5.2-1.5,7.9-1.5
			c2.7,0,5.3,0.5,7.9,1.4c2.6,0.9,4.8,2.3,6.7,4c2,1.8,3.5,3.9,4.6,6.2c1.1,2.4,1.7,5,1.7,7.7l0,18.5l-11.3-0.1V54.7z M144,32.8
			c-0.9,1.4-1.3,2.9-1.3,4.6c0,2.5,0.9,4.7,2.8,6.5c1.9,1.8,4.1,2.7,6.6,2.7c2.6,0,4.8-0.9,6.7-2.7c1.9-1.8,2.8-4,2.8-6.5
			c0-1.7-0.4-3.2-1.3-4.6c-0.9-1.4-2-2.5-3.5-3.3c-1.4-0.8-3-1.2-4.7-1.2c-1.6,0-3.2,0.4-4.7,1.2C146.1,30.3,144.9,31.4,144,32.8z"
			/>
		<path fill="#E6352B" d="M174.8,37.2c0-3.6,1-6.9,2.9-9.8c1.9-3,4.4-5.3,7.7-7c3.2-1.7,6.6-2.6,10.3-2.6c2.8,0,5.4,0.5,7.9,1.5
			c2.5,0.9,4.7,2.3,6.7,4.1c2,1.8,3.5,3.9,4.6,6.2c1.1,2.3,1.6,4.9,1.6,7.7c0,2.7-0.6,5.3-1.7,7.7c-1.1,2.4-2.6,4.4-4.6,6.2
			c-2,1.8-4.2,3.2-6.7,4.1c-2.5,0.9-5.2,1.4-7.9,1.4c-2.7,0-5.3-0.5-7.8-1.4l-0.8-0.4l-0.8-0.4v15l-11.3,0V37.2z M186.1,37.5
			c0,1.7,0.4,3.2,1.3,4.5c0.9,1.4,2,2.5,3.5,3.3c1.4,0.8,3,1.2,4.7,1.2c1.7,0,3.2-0.4,4.7-1.2c1.5-0.8,2.6-1.9,3.5-3.3
			c0.9-1.4,1.3-2.9,1.3-4.5c0-2.5-0.9-4.7-2.8-6.5c-1.9-1.8-4.1-2.7-6.7-2.7c-2.6,0-4.8,0.9-6.6,2.7C187.1,32.8,186.1,35,186.1,37.5
			z"/>
	</g>
	<g>
		<g>
			<path fill="#989798" d="M210.2,15.6c-3.4,0-6.2-2.8-6.2-6.2s2.8-6.2,6.2-6.2c3.4,0,6.2,2.8,6.2,6.2S213.7,15.6,210.2,15.6z
				 M210.2,4.2c-2.9,0-5.2,2.3-5.2,5.2s2.3,5.2,5.2,5.2s5.2-2.3,5.2-5.2S213.1,4.2,210.2,4.2z"/>
		</g>
		<g id="Shape_1_5_">
			<path fill="#989798" d="M212.5,11.1c-0.2-0.8-0.5-1.3-1.1-1.5l0-0.1c0.7-0.2,1.3-0.7,1.3-1.4c0-0.6-0.3-1-0.6-1.3
				c-0.4-0.3-0.9-0.5-2.1-0.5c-1,0-1.8,0.1-2.4,0.2l0,6.1l1.4,0l0-2.4l0.7,0c0.8,0,1.2,0.3,1.3,0.9c0.2,0.7,0.3,1.3,0.5,1.5l1.5,0
				C212.8,12.4,212.7,12,212.5,11.1z M209.7,9.1l-0.7,0l0-1.7c0.2,0,0.4-0.1,0.8-0.1c0.9,0,1.3,0.4,1.3,0.9
				C211.1,8.9,210.5,9.1,209.7,9.1z"/>
		</g>
	</g>
</g>
</svg>
